<svg fill="none" height="17" viewBox="0 0 24 17" width="24" xmlns="http://www.w3.org/2000/svg" xmlns:xlink="http://www.w3.org/1999/xlink"><clipPath id="a"><path d="m0 0h24v17h-24z"/></clipPath><g clip-path="url(#a)"><path d="m22.9958.779999.104.468001c-1.9414 1.248-2.912 3.03333-2.912 5.356 0 .76267.104 1.64667.312 2.652.0693.38133.1213.7627.156 1.144.0693.3813.104.7627.104 1.144 0 1.768-.468 3.1027-1.404 4.004s-2.0107 1.352-3.224 1.352c-1.3867 0-2.4614-.5027-3.224-1.508-.7627-1.04-1.144-2.3053-1.144-3.796 0-1.144.2426-2.35733.728-3.64.52-1.28267 1.2826-2.46133 2.288-3.536 1.248-1.31733 2.6-2.25333 4.056-2.808 1.4906-.55467 2.8773-.832001 4.16-.832001zm-10.92 0 .104.468001c-1.9414 1.248-2.91205 3.03333-2.91205 5.356 0 .76267.104 1.64667.312 2.652.06934.38133.12133.7627.156 1.144.06933.3813.104.7627.104 1.144 0 1.768-.468 3.1027-1.404 4.004s-2.01067 1.352-3.224 1.352c-1.38667 0-2.46134-.5027-3.224-1.508-.76267-1.04-1.144-2.3053-1.144-3.796 0-1.144.24266-2.35733.728-3.64.52-1.28267 1.28266-2.46133 2.288-3.536 1.248-1.31733 2.6-2.25333 4.056-2.808 1.49066-.55467 2.87735-.832001 4.16005-.832001z" fill="#7d6e4a"/></g></svg>