<svg fill="none" height="42" viewBox="0 0 43 42" width="43" xmlns="http://www.w3.org/2000/svg"><path d="m39.1738 34.6484c.6328.7032.6328 1.7578-.0703 2.3907l-1.9687 1.9687c-.6328.7031-1.6875.7031-2.3907 0l-6.9609-6.9609c-.3516-.3516-.4922-.7735-.4922-1.1953v-1.1954c-2.5312 1.9688-5.625 3.0938-9 3.0938-8.0859 0-14.62498-6.5391-14.62498-14.625 0-8.0156 6.53908-14.625 14.62498-14.625 8.0156 0 14.625 6.6094 14.625 14.625 0 3.4453-1.1953 6.5391-3.0937 9h1.125c.4218 0 .8437.2109 1.1953.4922zm-20.8828-7.5234c4.9219 0 9-4.0078 9-9 0-4.9219-4.0781-9-9-9-4.9922 0-8.99998 4.0781-8.99998 9 0 4.9922 4.00778 9 8.99998 9z" fill="#b9ac88"/></svg>