<svg fill="none" height="37" viewBox="0 0 46 37" width="46" xmlns="http://www.w3.org/2000/svg"><path d="m16.25 18.5c-4.9922 0-9-4.0078-9-9 0-4.92188 4.0078-9 9-9 4.9219 0 9 4.07812 9 9 0 4.9922-4.0781 9-9 9zm6.2578 2.25c2.8125 0 5.3438 1.2656 7.0313 3.2344l-5.4141 5.414-.5625.5625-.0703.7735-.4922 4.289c-.0703.4922 0 1.0547.1406 1.4766h-19.2656c-1.89844 0-3.375-1.4766-3.375-3.375v-2.8828c0-5.2031 4.21875-9.4922 9.42188-9.4922h1.19532c1.5469.7734 3.3047 1.125 5.1328 1.125s3.5156-.3516 5.0625-1.125zm3.1641 10.2656 9.7031-9.7031 5.0625 5.0625-9.7031 9.7031-4.2891.4219c-.7031.1406-1.2656-.4922-1.1953-1.1953zm19.3359-11.6015c.6328.7031.6328 1.7578 0 2.3906l-2.9531 2.9531-5.0625-5.0625.2812-.2812 2.6719-2.6719c.6328-.6328 1.6875-.6328 2.3906 0z" fill="#b9ac88"/></svg>