<svg fill="none" height="42" viewBox="0 0 46 42" width="46" xmlns="http://www.w3.org/2000/svg"><path d="m31.3496 8c.6328 0 1.1953.28125 1.6172.70312l3.7969 3.79688v13.6406c-.1407-.2109-.3516-.3515-.4922-.5625l-10.2656-8.2969 1.8281-1.6874c.4922-.4219.4922-1.125.0703-1.5469-.4219-.4922-1.125-.4922-1.6172-.0703l-5.5547 5.1328c-.0703 0-.0703 0-.0703 0-1.1953 1.0547-3.0234.7734-3.9375-.211-.9844-1.0546-.9844-2.8125.1406-3.9375l6.961-6.32809c.4218-.42187.914-.63281 1.4765-.63281zm7.7344 4.5703h6.75v18h-4.5c-1.2656 0-2.25-1.0547-2.25-2.25zm3.375 15.75c.5625 0 1.125-.5625 1.125-1.125 0-.6328-.5625-1.125-1.125-1.125-.6328 0-1.125.4922-1.125 1.125 0 .5625.4922 1.125 1.125 1.125zm-41.625016 2.1797v-17.9297h6.749996v15.6797c0 1.2656-1.05468 2.25-2.25 2.25zm3.374996-4.4297c-.63281 0-1.125.4922-1.125 1.125 0 .5625.49219 1.125 1.125 1.125.5625 0 1.125-.5625 1.125-1.125 0-.6328-.5625-1.125-1.125-1.125zm30.58592 1.2656c.9844.7735 1.125 2.1797.3516 3.1641l-.6328.8438c-.8438.9843-2.25 1.125-3.1641.3515l-.4219-.3515-2.1797 2.7421c-.914 1.125-2.6015 1.2657-3.7265.3516l-1.1953-1.0547h-.0703c-1.5469 1.8984-4.3594 2.25-6.3282.6328l-6.3281-5.7656h-1.26562v-15.75l3.79692-3.79688c.4218-.42187.9843-.70312 1.6171-.70312h5.9063l-5.7656 5.2734c-2.0391 1.8985-2.1797 5.1328-.3516 7.1719 1.8984 2.0391 5.0625 2.25 7.1719.2813l2.1094-1.8985z" fill="#b9ac88"/></svg>